<?xml version="1.0" encoding="utf-8"?>
<!-- Generator: Adobe Illustrator 21.0.0, SVG Export Plug-In . SVG Version: 6.00 Build 0)  -->
<svg version="1.1" id="Layer_1" xmlns="http://www.w3.org/2000/svg" xmlns:xlink="http://www.w3.org/1999/xlink" x="0px" y="0px"
	 viewBox="0 0 128 128" style="enable-background:new 0 0 128 128;" xml:space="preserve">
<style type="text/css">
	.st0{fill:#FFFFFF;}
</style>
<path class="st0" d="M112,0H16C7.2,0,0,7.2,0,16v96c0,8.8,7.2,16,16,16h52.9V78.2H51.1V60.4h17.8V44c0-16.5,9.8-26.3,24.5-26.3
	c7.1,0,12.8,0.8,14.6,1v18.6l-11.9,0c-8,0-9.5,4-9.5,9.6v13.5h20.6l-2.9,17.8H86.6V128H112c8.8,0,16-7.2,16-16V16
	C128,7.2,120.8,0,112,0z"/>
</svg>
