<?xml version="1.0" encoding="utf-8"?>
<!-- Generator: Adobe Illustrator 20.0.0, SVG Export Plug-In . SVG Version: 6.00 Build 0)  -->
<svg version="1.1" id="Layer_1" xmlns="http://www.w3.org/2000/svg" xmlns:xlink="http://www.w3.org/1999/xlink" x="0px" y="0px"
	 viewBox="0 0 48 48" style="enable-background:new 0 0 48 48;" xml:space="preserve">
<style type="text/css">
	.st0{fill:#FFFFFF;}
</style>
<path class="st0" d="M43,41H5c-2.2,0-4-1.8-4-4V11c0-2.2,1.8-4,4-4h38c2.2,0,4,1.8,4,4v26C47,39.2,45.2,41,43,41z M45,11
	c0-1.1-0.9-2-2-2H5c-1.1,0-2,0.9-2,2v26c0,1.1,0.9,2,2,2h38c1.1,0,2-0.9,2-2V11z M41.3,34.7L35,28.4L31.4,32l3.3,3.3
	c0.4,0.4,0.4,1,0,1.4c-0.4,0.4-1,0.4-1.4,0L19,22.4L6.7,34.7c-0.4,0.4-1,0.4-1.4,0c-0.4-0.4-0.4-1,0-1.4l12.9-12.9
	c0,0,0.1-0.1,0.1-0.1c0.2-0.2,0.5-0.3,0.7-0.3c0.3,0,0.5,0.1,0.7,0.3c0,0,0.1,0.1,0.1,0.1L30,30.6l4.2-4.2c0,0,0.1-0.1,0.1-0.1
	c0.2-0.2,0.5-0.3,0.7-0.3c0.3,0,0.5,0.1,0.7,0.3c0,0,0.1,0.1,0.1,0.1l6.9,6.9c0.4,0.4,0.4,1,0,1.4C42.3,35.1,41.7,35.1,41.3,34.7z
	 M29,19c-2.2,0-4-1.8-4-4s1.8-4,4-4s4,1.8,4,4S31.2,19,29,19z M29,13c-1.1,0-2,0.9-2,2s0.9,2,2,2s2-0.9,2-2S30.1,13,29,13z"/>
</svg>
