<?xml version="1.0" encoding="utf-8"?>
<!-- Generator: Adobe Illustrator 21.0.0, SVG Export Plug-In . SVG Version: 6.00 Build 0)  -->
<svg version="1.1" id="Layer_1" xmlns="http://www.w3.org/2000/svg" xmlns:xlink="http://www.w3.org/1999/xlink" x="0px" y="0px"
	 viewBox="0 0 16 16" style="enable-background:new 0 0 16 16;" xml:space="preserve">
<style type="text/css">
	.st0{fill:#FFFFFF;}
</style>
<path class="st0" d="M14,7.2L12.9,6V3.1c0-0.4-0.3-0.8-0.8-0.8h-0.8c-0.5,0-0.8,0.4-0.8,0.8v0.5L8.8,2C8.6,1.7,8.4,1.5,8,1.5
	S7.4,1.7,7.2,2L2,7.2C1.7,7.4,1.5,7.7,1.5,8c0,0.5,0.3,0.8,0.8,0.8h0.8v4.9c0,0.5,0.4,0.8,0.8,0.8h2.4v-4.1c0-0.5,0.3-0.8,0.8-0.8
	h1.6c0.5,0,0.8,0.3,0.8,0.8v4.1h2.4c0.5,0,0.8-0.3,0.8-0.8V8.8h0.8c0.5,0,0.8-0.3,0.8-0.8C14.5,7.7,14.3,7.4,14,7.2z"/>
</svg>
