<?xml version="1.0" encoding="utf-8"?>
<!-- Generator: Adobe Illustrator 21.0.0, SVG Export Plug-In . SVG Version: 6.00 Build 0)  -->
<svg version="1.1" id="Layer_1" xmlns="http://www.w3.org/2000/svg" xmlns:xlink="http://www.w3.org/1999/xlink" x="0px" y="0px"
	 viewBox="0 0 120 135" style="enable-background:new 0 0 120 135;" xml:space="preserve">
<style type="text/css">
	.st0{fill:#FFFFFF;}
	.st1{fill:none;}
</style>
<path class="st0" d="M43.3,49.1c-2,5.8-3.2,12-3.6,18.5h17.2V49.1H43.3L43.3,49.1z M46.4,41.6h10.5V26.8C52.7,31,49.2,36,46.4,41.6
	L46.4,41.6z M38.2,41.6c2.2-5.1,5-9.9,8.3-14.2c-8.5,2.7-15.8,7.8-21.1,14.2H38.2L38.2,41.6z M101,49.1H85.8
	c1.8,5.8,2.9,12,3.2,18.5h17.6C106.1,60.9,104.1,54.7,101,49.1L101,49.1z M81.5,67.6c-0.3-6.5-1.6-12.7-3.6-18.5H64.3v18.5H81.5
	L81.5,67.6z M74.8,41.6C72.1,36,68.5,31,64.3,26.8v14.8H74.8L74.8,41.6z M83,41.6h12.8c-5.4-6.3-12.7-11.5-21.1-14.2
	C78,31.7,80.8,36.5,83,41.6L83,41.6z M20.2,93.6h15.2c-1.8-5.8-2.9-12-3.2-18.5H14.6C15.2,81.8,17.1,88.1,20.2,93.6L20.2,93.6z
	 M39.7,75.1c0.3,6.5,1.6,12.7,3.6,18.5h13.6V75.1H39.7L39.7,75.1z M46.4,101.1c2.8,5.6,6.4,10.6,10.5,14.8v-14.8H46.4L46.4,101.1z
	 M38.2,101.1H25.3c5.4,6.3,12.7,11.5,21.1,14.2C43.2,111.1,40.4,106.3,38.2,101.1L38.2,101.1z M85.8,93.6H101
	c3.1-5.6,5-11.8,5.6-18.5H89C88.7,81.6,87.6,87.8,85.8,93.6L85.8,93.6z M77.9,93.6c2-5.8,3.2-12,3.6-18.5H64.3v18.5H77.9L77.9,93.6z
	 M74.8,101.1H64.3v14.8C68.5,111.8,72.1,106.8,74.8,101.1L74.8,101.1z M83,101.1c-2.2,5.1-5,9.9-8.3,14.2
	c8.5-2.7,15.8-7.8,21.1-14.2H83L83,101.1z M35.4,49.1H20.2c-3.1,5.6-5,11.9-5.6,18.5h17.6C32.6,61.2,33.7,54.9,35.4,49.1L35.4,49.1z
	 M60.6,125C31,125,7,101,7,71.4s24-53.6,53.6-53.6s53.6,24,53.6,53.6S90.2,125,60.6,125L60.6,125z"/>
<rect id="_x3C_Slice_x3E__100_" class="st1" width="120" height="135"/>
</svg>
